HIERARCHY
ROOT root
{
	OFFSET	0	13.1	24.9
	CHANNELS 6  Xposition Yposition Zposition Xrotation Yrotation Zrotation
	JOINT spine_1
	{
		OFFSET	0	9.99999	0
		CHANNELS 3  Xrotation Yrotation Zrotation
		JOINT spine_2
		{
			OFFSET	0	112	-10
			CHANNELS 3  Xrotation Yrotation Zrotation
			JOINT spine_3
			{
				OFFSET	0	206.5	19.3
				CHANNELS 3  Xrotation Yrotation Zrotation
				JOINT spine_4
				{
					OFFSET	0	110.4	14.6
					CHANNELS 3  Xrotation Yrotation Zrotation
					JOINT neck_1
					{
						OFFSET	0	71.8	-50.3
						CHANNELS 3  Xrotation Yrotation Zrotation
						JOINT neck_2
						{
							OFFSET	0	86.2	-25.8
							CHANNELS 3  Xrotation Yrotation Zrotation
							JOINT head_ee
							{
								OFFSET	0	179.8	-8.7
								CHANNELS 3  Xrotation Yrotation Zrotation
								End Site
								{
									OFFSET	1	0	0
								}
							}
						}
					}
					JOINT left_clavicle
					{
						OFFSET	-43.2	22.4	-70.8
						CHANNELS 3  Xrotation Yrotation Zrotation
						JOINT left_shoulder
						{
							OFFSET	-93.9	-5.79999	48.7
							CHANNELS 3  Xrotation Yrotation Zrotation
							JOINT left_elbow
							{
								OFFSET	-291.4	-30.8	15.2
								CHANNELS 3  Xrotation Yrotation Zrotation
								JOINT left_lowarm_twist
								{
									OFFSET	-110.7	-3.89999	13.6
									CHANNELS 3  Xrotation Yrotation Zrotation
									JOINT left_hand
									{
										OFFSET	-110.7	-3.89999	13.6
										CHANNELS 3  Xrotation Yrotation Zrotation
										JOINT left_ee
										{
											OFFSET	-80.8	-5.10001	12.1
											CHANNELS 3  Xrotation Yrotation Zrotation
											End Site
											{
												OFFSET	1	0	0
											}
										}
									}
								}
							}
						}
					}
					JOINT right_clavicle
					{
						OFFSET	43.2	22.4	-70.8
						CHANNELS 3  Xrotation Yrotation Zrotation
						JOINT right_shoulder
						{
							OFFSET	93.9	-5.79999	48.7
							CHANNELS 3  Xrotation Yrotation Zrotation
							JOINT right_elbow
							{
								OFFSET	291.4	-30.8	15.2
								CHANNELS 3  Xrotation Yrotation Zrotation
								JOINT right_lowarm_twist
								{
									OFFSET	110.7	-3.89999	13.6
									CHANNELS 3  Xrotation Yrotation Zrotation
									JOINT right_hand
									{
										OFFSET	110.7	-3.89999	13.6
										CHANNELS 3  Xrotation Yrotation Zrotation
										JOINT right_ee
										{
											OFFSET	80.8	-5.10001	12.1
											CHANNELS 3  Xrotation Yrotation Zrotation
											End Site
											{
												OFFSET	1	0	0
											}
										}
									}
								}
							}
						}
					}
				}
			}
		}
	}
	JOINT left_hip
	{
		OFFSET	-82.8	-127.5	0.300001
		CHANNELS 3  Xrotation Yrotation Zrotation
		JOINT left_knee
		{
			OFFSET	-28.2	-396.7	2.2
			CHANNELS 3  Xrotation Yrotation Zrotation
			JOINT left_ankle
			{
				OFFSET	-11.7	-411.3	35.4
				CHANNELS 3  Xrotation Yrotation Zrotation
				JOINT left_toes
				{
					OFFSET	0	-60	-88.6
					CHANNELS 3  Xrotation Yrotation Zrotation
					JOINT left_foot_ee
					{
						OFFSET	-22.5	-16.5	-42.2
						CHANNELS 3  Xrotation Yrotation Zrotation
						End Site
						{
							OFFSET	1	0	0
						}
					}
				}
			}
		}
	}
	JOINT right_hip
	{
		OFFSET	82.8	-127.5	0.300001
		CHANNELS 3  Xrotation Yrotation Zrotation
		JOINT right_knee
		{
			OFFSET	28.2	-396.7	2.2
			CHANNELS 3  Xrotation Yrotation Zrotation
			JOINT right_ankle
			{
				OFFSET	11.7	-411.3	35.4
				CHANNELS 3  Xrotation Yrotation Zrotation
				JOINT right_toes
				{
					OFFSET	0	-60	-88.6
					CHANNELS 3  Xrotation Yrotation Zrotation
					JOINT right_foot_ee
					{
						OFFSET	22.5	-16.5	-42.2
						CHANNELS 3  Xrotation Yrotation Zrotation
						End Site
						{
							OFFSET	1	0	0
						}
					}
				}
			}
		}
	}
}
MOTION
Frames: 6
Frame Time: 0.02
1948.86 747.18 -606.293 138.512 -80.0493 141.8 -1.77374 0.250407 0.583166 -1.77358 0.212792 0.597917 -1.77111 0.0628891 0.631529 -1.77163 0.161836 0.613672 -13.6767 3.59585 -2.19753 -13.711 8.20641 -0.978178 -0.0 0.0 -0.0 3.49018 12.5943 7.29892 -12.3752 -15.1576 62.9464 0.910072 -24.2666 0.19566 -44.6456 -3.45821 4.37399 -0.72588 24.6364 5.64419 -0.0 0.0 -0.0 10.0409 -4.13805 -19.4815 0.23133 56.7297 -56.8278 0.897836 23.9774 -0.190659 -11.6467 0.552779 -1.38014 -0.538966 -21.2094 -5.33989 0.0 0.0 0.0 19.2002 5.56453 -13.2653 -60.6791 -2.27376 8.59984 -22.3514 29.0838 3.58719 25.2924 -0.0 -0.0 -0.0 0.0 -0.0 7.94107 18.7646 -13.1545 -18.6649 -0.309137 -2.83496 18.047 -6.59033 2.48592 -11.4546 0.0 0.0 0.0 0.0 0.0 
1970.65 748.982 -602.762 131.913 -80.3719 135.282 -1.65221 0.251675 0.601463 -1.65203 0.212893 0.616258 -1.64949 0.0599585 0.649231 -1.65004 0.161738 0.631615 -13.6632 3.75591 -1.9208 -13.7022 8.34114 -0.665869 -0.0 0.0 -0.0 3.5961 12.0846 7.46129 -13.9823 -14.3829 62.556 0.661706 -18.1487 0.105686 -44.6399 -3.45758 4.37363 -0.788656 26.9491 6.22801 -0.0 0.0 -0.0 10.3408 -3.29369 -20.1472 0.944564 57.1626 -55.7164 0.882549 23.6142 -0.184491 -11.722 0.557251 -1.38866 -0.587274 -19.1145 -4.19931 0.0 0.0 0.0 22.9386 5.51344 -13.6858 -59.4266 -2.13839 8.46197 -21.6702 29.2157 3.48029 24.3653 -0.0 -0.0 -0.0 0.0 -0.0 4.12318 17.3803 -12.5859 -17.0841 -0.318955 -2.59262 20.7194 -6.16132 2.81983 -11.7651 0.0 0.0 0.0 0.0 0.0 
1983.91 745.136 -603.031 133.563 -80.4052 136.554 -1.50941 0.339515 0.775814 -1.50912 0.289461 0.795844 -1.50469 0.0936769 0.84165 -1.50561 0.22542 0.816296 -13.7821 3.82881 -1.95943 -13.8237 8.50237 -0.670967 -0.0 0.0 -0.0 3.75745 11.7961 7.7261 -14.7064 -12.8183 62.5801 0.472455 -13.1726 0.0545509 -44.5502 -3.44755 4.36797 -0.650151 28.4974 7.60389 -0.0 0.0 -0.0 10.5078 -3.04131 -20.5047 2.70873 57.6849 -55.1272 0.922131 24.5504 -0.200643 -12.0427 0.576446 -1.42494 -0.798561 -17.9564 -2.4429 0.0 0.0 0.0 24.8847 4.97629 -13.9297 -57.5449 -1.9408 8.24944 -21.0148 28.7398 3.36403 23.9683 -0.0 -0.0 -0.0 0.0 -0.0 2.27653 17.2665 -12.3005 -15.1804 -0.321901 -2.30056 23.0051 -6.82115 3.09618 -11.7498 0.0 0.0 0.0 0.0 0.0 
2002.08 742.063 -604.697 121.8 -81.4443 124.888 -1.31057 0.385056 0.665949 -1.31038 0.341901 0.6891 -1.30596 0.17241 0.749684 -1.30663 0.288642 0.713049 -15.304 3.65098 -1.71701 -15.3534 7.99767 -0.389161 -0.0 0.0 -0.0 4.086 11.6352 8.28094 -16.1784 -13.393 62.2044 0.325811 -9.16852 0.0261241 -45.7393 -3.58117 4.44172 -0.433179 28.9203 8.94738 -0.0 0.0 -0.0 10.5666 -3.68224 -20.5728 4.02207 57.8548 -54.5594 0.963762 25.5203 -0.218261 -11.7542 0.559168 -1.39231 -0.962649 -17.7732 -1.37145 0.0 0.0 0.0 20.6233 4.82257 -14.1256 -42.6871 -0.646512 6.3703 -21.1282 25.2933 3.31555 22.1355 -0.0 -0.0 -0.0 0.0 -0.0 0.970045 16.3773 -11.8394 -14.9193 -0.321548 -2.26051 22.6622 -5.13165 3.05661 -12.6017 0.0 0.0 0.0 0.0 0.0 
2019.45 737.296 -604.824 122.064 -82.0208 125.487 -1.08465 0.422609 0.453511 -1.08462 0.392895 0.479484 -1.08118 0.272904 0.556591 -1.08144 0.357381 0.506507 -15.7198 3.50079 -1.65431 -15.768 7.66797 -0.353168 -0.0 0.0 -0.0 4.15748 11.6486 8.40301 -17.5585 -12.8217 62.292 0.198846 -5.62577 0.00977009 -46.3314 -3.64825 4.47741 -0.225138 29.5844 10.3215 -0.0 0.0 -0.0 10.5322 -3.94856 -20.4815 5.86765 58.3896 -54.1249 1.02621 26.9461 -0.245866 -11.6149 0.550893 -1.37654 -1.15135 -17.225 0.0133932 0.0 0.0 0.0 18.1311 4.81723 -13.8827 -33.1448 -0.0891801 5.01558 -21.8762 22.9245 3.39463 20.8456 -0.0 -0.0 -0.0 0.0 -0.0 -0.439888 14.5701 -11.5261 -13.7703 -0.317827 -2.08426 23.5895 -4.60413 3.16787 -13.0465 0.0 0.0 0.0 0.0 0.0 
2046.61 732.799 -609.037 118.39 -81.2757 122.046 -1.09928 0.418414 0.145896 -1.09936 0.408282 0.172226 -1.09815 0.35803 0.261095 -1.09802 0.394772 0.201274 -15.3642 2.17817 -0.0571387 -15.3801 4.20273 0.680292 -0.0 0.0 -0.0 4.13662 14.4139 8.40893 -20.0911 -11.6229 62.0494 0.264137 -7.45474 0.0172078 -46.538 -3.67176 4.4897 1.12005 29.2569 17.6714 -0.0 0.0 -0.0 10.4648 -3.83776 -20.3547 5.06141 57.1177 -52.0521 1.17248 30.1474 -0.315792 -10.2283 0.470565 -1.21836 -1.94107 -11.1372 7.77165 0.0 0.0 0.0 17.6336 3.78813 -12.1821 -28.0128 0.115035 4.25474 -15.4247 18.9935 2.35054 21.846 -0.0 -0.0 -0.0 0.0 -0.0 -5.01672 14.7706 -11.1515 -11.375 -0.29871 -1.71726 28.8799 -6.954 3.76741 -14.4032 0.0 0.0 0.0 0.0 0.0 
